<svg xmlns="http://www.w3.org/2000/svg" xmlns:xlink="http://www.w3.org/1999/xlink" width="150" zoomAndPan="magnify" viewBox="0 0 112.5 30.000001" height="40" preserveAspectRatio="xMidYMid meet" version="1.0"><defs><g/></defs><path fill="#516d5d" d="M 40.25 14.453125 L 34.839844 14.453125 L 38.941406 2.171875 L 44.351562 2.171875 L 41.589844 10.4375 L 46.097656 10.4375 L 36.671875 27.203125 L 40.25 14.453125 " fill-opacity="1" fill-rule="nonzero"/><path fill="#ff4838" d="M 41.15625 13.015625 L 36.261719 13.015625 L 39.972656 1.90625 L 44.867188 1.90625 L 42.371094 9.382812 L 46.445312 9.382812 L 37.917969 24.554688 L 41.15625 13.015625 " fill-opacity="1" fill-rule="nonzero"/><g fill="#ff4838" fill-opacity="1"><g transform="translate(47.480484, 14.713703)"><g><path d="M 0.589844 0 L 2.882812 -10.808594 L 4.132812 -10.808594 C 5.601562 -10.808594 6.308594 -10.515625 6.585938 -9.691406 C 6.824219 -8.867188 6.601562 -7.527344 6.148438 -5.398438 C 5.691406 -3.277344 5.351562 -1.941406 4.765625 -1.117188 C 4.160156 -0.292969 3.308594 0 1.839844 0 Z M 2.5 -1.589844 C 3.042969 -1.589844 3.367188 -1.648438 3.648438 -2.175781 C 3.898438 -2.660156 4.101562 -3.527344 4.25 -4.234375 C 4.324219 -4.574219 4.398438 -4.96875 4.5 -5.410156 C 4.585938 -5.851562 4.675781 -6.25 4.75 -6.601562 C 4.898438 -7.292969 5.074219 -8.117188 5.015625 -8.644531 C 4.96875 -9.160156 4.675781 -9.21875 4.132812 -9.21875 Z M 2.5 -1.589844 "/></g></g></g><g fill="#ff4838" fill-opacity="1"><g transform="translate(52.946836, 14.713703)"><g><path d="M 2.882812 -10.808594 L 4.46875 -10.808594 L 2.175781 0 L 0.589844 0 Z M 2.882812 -10.808594 "/></g></g></g><g fill="#ff4838" fill-opacity="1"><g transform="translate(55.709396, 14.713703)"><g><path d="M 0.148438 0 L 4.074219 -10.808594 L 6.015625 -10.808594 L 5.351562 0 L 3.808594 0 L 3.96875 -2.207031 L 2.441406 -2.207031 L 1.691406 0 Z M 4.382812 -7.292969 L 4.398438 -7.574219 L 4.308594 -7.574219 L 4.207031 -7.292969 L 3.027344 -3.882812 L 4.117188 -3.882812 Z M 4.382812 -7.292969 "/></g></g></g><g fill="#ff4838" fill-opacity="1"><g transform="translate(61.205126, 14.713703)"><g><path d="M 3.457031 -5.632812 L 3.425781 -6.132812 L 3.339844 -6.132812 L 2.042969 0 L 0.589844 0 L 2.882812 -10.808594 L 4.292969 -10.808594 L 4.632812 -5.175781 L 4.660156 -4.675781 L 4.75 -4.675781 L 6.058594 -10.808594 L 7.515625 -10.808594 L 5.21875 0 L 3.808594 0 Z M 3.457031 -5.632812 "/></g></g></g><g fill="#ff4838" fill-opacity="1"><g transform="translate(67.00944, 14.713703)"><g><path d="M 0.148438 0 L 4.074219 -10.808594 L 6.015625 -10.808594 L 5.351562 0 L 3.808594 0 L 3.96875 -2.207031 L 2.441406 -2.207031 L 1.691406 0 Z M 4.382812 -7.292969 L 4.398438 -7.574219 L 4.308594 -7.574219 L 4.207031 -7.292969 L 3.027344 -3.882812 L 4.117188 -3.882812 Z M 4.382812 -7.292969 "/></g></g></g><g fill="#ff4838" fill-opacity="1"><g transform="translate(72.495403, 14.713703)"><g/></g></g><g fill="#ff4838" fill-opacity="1"><g transform="translate(43.720848, 27.058646)"><g><path d="M 2.691406 -10.09375 L 6.085938 -10.09375 L 5.753906 -8.570312 L 3.847656 -8.570312 L 3.28125 -5.917969 L 4.65625 -5.917969 L 4.3125 -4.300781 L 2.9375 -4.300781 L 2.347656 -1.523438 L 4.257812 -1.523438 L 3.941406 0 L 0.550781 0 Z M 2.691406 -10.09375 "/></g></g></g><g fill="#ff4838" fill-opacity="1"><g transform="translate(47.934831, 27.058646)"><g><path d="M 5.382812 -10.09375 L 6.828125 -10.09375 L 3.144531 0 L 1.660156 0 L 2.265625 -10.09375 L 3.707031 -10.09375 L 3.269531 -4.546875 L 3.226562 -4.121094 L 3.308594 -4.121094 L 3.460938 -4.546875 Z M 5.382812 -10.09375 "/></g></g></g><g fill="#ff4838" fill-opacity="1"><g transform="translate(52.739051, 27.058646)"><g><path d="M 2.691406 -10.09375 L 6.085938 -10.09375 L 5.753906 -8.570312 L 3.847656 -8.570312 L 3.28125 -5.917969 L 4.65625 -5.917969 L 4.3125 -4.300781 L 2.9375 -4.300781 L 2.347656 -1.523438 L 4.257812 -1.523438 L 3.941406 0 L 0.550781 0 Z M 2.691406 -10.09375 "/></g></g></g><g fill="#ff4838" fill-opacity="1"><g transform="translate(56.953034, 27.058646)"><g><path d="M 3.226562 -5.261719 L 3.199219 -5.726562 L 3.117188 -5.726562 L 1.910156 0 L 0.550781 0 L 2.691406 -10.09375 L 4.011719 -10.09375 L 4.328125 -4.835938 L 4.355469 -4.367188 L 4.4375 -4.367188 L 5.660156 -10.09375 L 7.019531 -10.09375 L 4.875 0 L 3.558594 0 Z M 3.226562 -5.261719 "/></g></g></g><g fill="#ff4838" fill-opacity="1"><g transform="translate(62.374933, 27.058646)"><g><path d="M 1.839844 -8.570312 L 2.171875 -10.09375 L 6.457031 -10.09375 L 6.125 -8.570312 L 4.726562 -8.570312 L 2.910156 0 L 1.429688 0 L 3.242188 -8.570312 Z M 1.839844 -8.570312 "/></g></g></g><g fill="#ff4838" fill-opacity="1"><g transform="translate(66.71245, 27.058646)"><g><path d="M 4.574219 -7.390625 C 4.640625 -7.71875 4.710938 -8.089844 4.667969 -8.378906 C 4.628906 -8.652344 4.519531 -8.84375 4.285156 -8.84375 C 3.902344 -8.832031 3.695312 -8.433594 3.570312 -7.84375 C 3.503906 -7.5 3.558594 -7.140625 3.707031 -6.757812 C 3.859375 -6.371094 4.039062 -5.976562 4.242188 -5.550781 C 4.503906 -5.039062 4.710938 -4.519531 4.875 -4.011719 C 5.027344 -3.503906 5.09375 -2.980469 4.972656 -2.429688 C 4.820312 -1.757812 4.601562 -1.140625 4.175781 -0.660156 C 3.75 -0.179688 3.199219 0.109375 2.375 0.109375 C 1.429688 0.109375 0.960938 -0.246094 0.78125 -0.796875 C 0.578125 -1.347656 0.6875 -2.058594 0.835938 -2.828125 L 2.320312 -2.964844 C 2.226562 -2.539062 2.15625 -2.113281 2.199219 -1.800781 C 2.238281 -1.46875 2.347656 -1.25 2.664062 -1.25 C 3.105469 -1.25 3.351562 -1.71875 3.503906 -2.363281 C 3.570312 -2.691406 3.503906 -3.078125 3.351562 -3.476562 C 3.308594 -3.570312 3.269531 -3.679688 3.226562 -3.777344 C 3.1875 -3.875 3.144531 -3.984375 3.105469 -4.078125 C 3.007812 -4.285156 2.898438 -4.503906 2.789062 -4.738281 C 2.679688 -4.972656 2.570312 -5.207031 2.457031 -5.464844 C 2.226562 -5.988281 2.101562 -6.511719 2.058594 -7.03125 C 2.019531 -7.292969 2.058594 -7.566406 2.113281 -7.84375 C 2.226562 -8.390625 2.472656 -8.984375 2.898438 -9.4375 C 3.296875 -9.875 3.847656 -10.191406 4.546875 -10.207031 C 5.464844 -10.21875 5.890625 -9.847656 6.070312 -9.3125 C 6.234375 -8.761719 6.179688 -8.089844 6.058594 -7.527344 Z M 4.574219 -7.390625 "/></g></g></g></svg>